<?xml version="1.0" encoding="utf-8"?>
<!-- Generator: Adobe Illustrator 27.5.0, SVG Export Plug-In . SVG Version: 6.00 Build 0)  -->
<svg version="1.2" baseProfile="tiny" id="Layer_1" xmlns="http://www.w3.org/2000/svg" xmlns:xlink="http://www.w3.org/1999/xlink"
	 x="0px" y="0px" viewBox="0 0 324 324" overflow="visible" xml:space="preserve">
<g>
	<path fill="none" d="M185.27,230.71c0,0.88-1.47,1.6-3.87,2.19c-0.66,2.68-0.96,5.38,0.07,8.02c1.73,4.45,4.19,8.55,6.59,12.66
		c0.3,0.52,0.51,1.22,1.41,1.28c0.17-15.51,2.75-30.95,0.05-46.54c-2.26,6.88-4.85,13.59-6.95,20.48
		C184.78,229.28,185.27,229.64,185.27,230.71z"/>
	<path fill="none" d="M122.6,233.58c0.15,0.94,0.29,1.88,0.42,2.83c18.7,3.2,37.46,5.17,56.39,2.22c0.04-1.85,0.23-3.66,0.53-5.43
		c-7.64,1.49-21.75,1.95-30.44,1.95C141.48,235.16,129.9,234.78,122.6,233.58z"/>
	<path fill="none" d="M106.14,264.19c-0.22,1.05-0.46,2.1-0.7,3.15c0.23,0.07,0.48,0.14,0.74,0.22c0.48-1.24,0.98-2.47,1.52-3.68
		C107.1,263.98,106.58,264.09,106.14,264.19z"/>
	<path fill="none" d="M103.35,266.1c0,0.16,0.14,0.33,0.41,0.52c0.05-0.54,0.12-1.09,0.19-1.63
		C103.35,265.38,103.35,265.76,103.35,266.1z"/>
	<path fill="none" d="M121.03,233.3c-3.22-0.64-5.28-1.49-5.28-2.58c0-1.27,0.69-2.08,4.35-2.69l0.17,0.99
		c-3.51,0.59-3.51,1.21-3.51,1.71c0,0.43,1.38,1.02,4.29,1.59c-0.02-1.75-0.22-3.55-0.65-5.41c-1.32-5.72-3.48-11.13-5.03-16.75
		c-0.33-1.18-1.15-1.81-2.31-2.33c-2.42,18.45-2.95,37.08-6.69,55.29c0.54-0.12,1.14-0.23,1.83-0.33l0,0
		c2.57-5.59,5.65-10.93,8.72-16.27C119.36,242.27,120.88,237.95,121.03,233.3z"/>
	<path fill="none" d="M116.67,210.41c0.05,0.15,0.1,0.29,0.15,0.43c0.01-0.13,0.01-0.25,0.03-0.39
		C116.79,210.43,116.73,210.42,116.67,210.41z"/>
	<path fill="none" d="M180.14,232.17c1.02-5.33,2.91-10.36,4.29-15.47c-21.87,1.6-43.67,0.36-65.58-0.81
		c1.61,5.52,2.7,11.02,3.6,16.68c5.17,0.86,13.99,1.6,27.07,1.6C163.82,234.16,174.6,233.22,180.14,232.17z"/>
	<path fill="none" d="M184.27,230.7c0-0.35-0.02-0.52-1.98-0.95c-0.19,0.65-0.39,1.3-0.57,1.96c-0.01,0.04-0.02,0.08-0.03,0.12
		C183.28,231.45,184.17,231.06,184.27,230.7z"/>
	<path fill="none" d="M196.95,266.1c0-0.55-0.01-0.8-3.14-1.42c0.35,0.86,0.66,1.73,0.93,2.61
		C196.21,266.86,196.95,266.45,196.95,266.1z"/>
	<path fill="none" d="M68.11,260.22v2.38h0.66c0.72,0,0.74-0.65,0.74-1.19c0-0.54-0.02-1.19-0.74-1.19H68.11z"/>
	<path fill="none" d="M70.22,196.16h-0.54v2.21h0.54c0.68,0,0.88-0.32,0.88-1.1C71.1,196.48,70.88,196.16,70.22,196.16z"/>
	<path fill="none" d="M104.82,269.91c0.42-0.07,0.54-0.17,0.58-0.3c0.14-0.38,0.29-0.76,0.43-1.14c-0.21-0.06-0.43-0.13-0.62-0.19
		C105.08,268.81,104.96,269.36,104.82,269.91z"/>
	<path fill="none" d="M70.25,192.9h-0.56v1.82h0.56c0.66,0,0.85-0.29,0.85-0.91S70.92,192.9,70.25,192.9z"/>
	<path fill="none" d="M115.8,105.88c3.61-2.54,5.85-6,7.11-10.68c-2.22,1.79-4.38,2.84-6.65,3.67c-1.67,0.61-3.39,1.13-4.98,1.9
		c-4.82,2.36-6.75,7.71-4.36,12.17C109.33,109.84,112.71,108.05,115.8,105.88z"/>
	<polygon fill="none" points="69,225.56 68.34,228.72 69.66,228.72 	"/>
	<path fill="none" d="M133.36,127.89c-0.56,2.86-0.35,5.63,2.08,7.77c0.53,0.47,1.08,0.94,1.75,0.59c0.59-0.3,0.98-0.89,1-1.63
		c0.13-4.54,0.13-9.05-2.92-13.11C134.57,123.78,133.77,125.8,133.36,127.89z"/>
	<path fill="none" d="M160.78,100.51c0.71,3.39,2.03,6.55,3.8,10.21c-1.34-10.92-1.26-21.54-7.94-30.4
		C159.78,86.7,159.37,93.79,160.78,100.51z"/>
	<path fill="none" d="M165.38,132.53c3.33-3.5,1.83-6.76,0.89-10.46C164.35,125.68,165.24,128.85,165.38,132.53z"/>
	<path fill="none" d="M106.57,192.5c-5,0.78-5,1.64-5,2.33c0,0.56,1.68,1.3,5.25,2.02C106.57,195.41,106.49,193.96,106.57,192.5z"/>
	<polygon fill="none" points="225.87,225.56 225.21,228.72 226.53,228.72 	"/>
	<path fill="none" d="M174.47,84.4c-1.87-4.82-7.38-9.49-11.43-9.9c7.82,7.56,8.19,17.3,8.78,27.02
		C174.01,96,176.86,90.55,174.47,84.4z"/>
	<path fill="none" d="M232.06,224.58h-0.72v2.15h0.72c0.65,0,0.68-0.59,0.68-1.08S232.71,224.58,232.06,224.58z"/>
	<path fill="#020000" d="M179.85,239.91c-19.25,4.28-38.15,1.2-57.05-2.44c-0.28,0.86-0.48,1.65-0.79,2.39
		c-2.34,5.57-5.45,10.73-8.53,15.89c-2.32,3.9-4.22,7.98-5.91,12.15c6.16,1.39,19.31,2.77,41.2,2.77c22.57,0,37.21-1.45,43.92-2.89
		c-1.82-4.46-4-8.76-6.3-13.01C183.78,249.96,180.93,245.25,179.85,239.91z"/>
	<path fill="#020000" d="M107.2,268.83c-0.46,1.16-0.91,2.33-1.35,3.51c-0.69,1.86,0.33,2.92,1.44,3.98
		c3.61,3.46,7.54,6.56,11.59,9.47c5.74,4.12,10.83,8.96,15.42,14.26c3.38,3.91,6.94,7.58,10.88,10.89c2.35,1.97,4.84,3.67,8.06,3.73
		c7.44-16.48,28.21-34.66,42.46-37.15c-0.02-0.42,0.04-0.88-0.08-1.29c-0.71-2.58-1.58-5.08-2.56-7.55
		c-9.2,2.15-29.45,2.98-44.28,2.98C135.85,271.68,116.22,271.02,107.2,268.83z"/>
	<path fill="#020000" d="M189,192.27c0.22-2.62-0.62-4.62-2.49-6.55c-3.63-3.75-9.41-4.56-13.66-1.46c-0.84,0.61-1.4,0.25-2.03-0.04
		c-1.81-0.82-3.54-0.74-5.31,0.19c-6.69,3.5-12.34,8.11-16.01,14.84c-0.03,0.05-0.06,0.1-0.09,0.15
		c19.35-0.09,32.57-1.26,39.65-2.52C188.97,195.34,188.88,193.8,189,192.27z"/>
	<path fill="#020000" d="M146.98,201.32c-0.23-0.3-0.49-0.6-0.75-0.92c-11.54-0.02-27.95-0.57-37.64-2.21
		c1.52,4.77,4.31,8.61,9.27,10.51c6.14,2.35,12.24,0.93,18.15-1.29c2.22-0.83,4.32-2,6.64-2.57c2.59-0.64,5.55-0.55,7.5,0.73
		c4.71,3.09,9.43,5.94,15.01,6.95c1.87,0.34,3.86,0.05,6.13,0.05c-0.41,0.59-0.47,0.78-0.58,0.81c-0.28,0.09-0.58,0.12-0.87,0.15
		c-7.11,0.65-13.4-1.64-19.08-5.68c-3.08-2.19-6.26-2.67-9.69-1.35c-3.46,1.34-6.75,3.14-10.27,4.25c-4.6,1.45-9.31,0.77-13.98-0.31
		c-0.02,0.14-0.02,0.26-0.03,0.39c1.2,3.5,1.27,3.48,2.92,3.63c10.77,1.03,21.58,1.34,32.38,1.69c5.81,0.19,11.61-0.01,17.42-0.25
		c4.7-0.2,9.42-0.18,14.12-0.54c0.73-0.06,1.41,0.07,1.76-0.94c1.31-3.87,3-7.64,3.63-11.7c0.25-1.62,0.19-3.24,0.09-4.87
		c-9.52,1.75-26.86,2.48-40.41,2.54C148.3,200.86,147.77,201.2,146.98,201.32z M188.62,200.14c0.13,5.7-9.45,13.49-15.22,12.62
		C180.62,211.26,185.09,206.47,188.62,200.14z"/>
	<path fill="#020000" d="M136.31,188.98c-3.08-2.22-6.58-3.8-9.19-6.75c-1.09-1.24-3.01-1.99-4.73-1.43
		c-1.68,0.54-2.68-0.02-3.97-0.92c-2.51-1.75-5.55-1.14-7,1.38c-2.63,4.58-4.67,9.35-3.38,14.85c0.08,0.34,0.17,0.68,0.26,1.01
		c6.73,1.17,18.78,2.22,37.24,2.28C143.1,195.34,140.12,191.72,136.31,188.98z"/>
	<path fill="#51401B" d="M195.16,324h2.1c0.03-0.15,0.07-0.3,0.09-0.46c1.18-6.61,2.41-13.19,2.4-19.93
		c-0.01-9.17-0.49-18.3-2.76-27.23c-0.69-2.73-1.23-5.51-1.99-8.22c-0.58,0.18-1.23,0.36-1.95,0.53c0.97,2.46,1.85,4.97,2.56,7.55
		c0.11,0.41,0.06,0.87,0.08,1.29c-14.24,2.49-35.02,20.67-42.46,37.15c-3.22-0.06-5.72-1.76-8.06-3.73
		c-3.94-3.31-7.5-6.98-10.88-10.89c-4.59-5.3-9.68-10.14-15.42-14.26c-4.05-2.91-7.97-6.01-11.59-9.47
		c-1.11-1.06-2.13-2.12-1.44-3.98c0.44-1.18,0.89-2.35,1.35-3.51c-0.49-0.12-0.94-0.24-1.36-0.37c-0.14,0.38-0.3,0.75-0.43,1.14
		c-0.05,0.13-0.16,0.23-0.58,0.3c0.14-0.54,0.26-1.09,0.39-1.64c-0.6-0.2-1.12-0.42-1.54-0.64c-0.04,0.44-0.08,0.88-0.11,1.33
		c-0.2,3.24-0.83,6.42-0.51,9.73c0.22,2.31-0.5,4.7-0.72,7.07c-1.16,12.2,1.66,24,3.84,35.84c0.15,0.8,0.32,1.6,0.47,2.41h1.8
		c-1.31-5.89-2.51-11.81-3.6-17.76c-1.73-9.43-1.51-18.78-0.3-28.19c0.07-0.58,0.28-1.14,0.52-2.08
		c8.12,8.23,17.96,13.81,25.32,22.23c3,3.43,5.86,7,9.32,9.99c3.85,3.33,7.38,7.17,13,7.75c-0.87,2.82-1.59,5.44-2.15,8.07h1.8
		c2.72-12.56,9.06-23.16,19.88-31.28c3.98-2.99,7.95-6.02,12.05-8.84c3.13-2.16,6.71-3.49,10.32-4.66c1.11-0.36,1.78-0.04,2.2,1.15
		c0.67,1.85,0.89,3.78,1.02,5.69c0.29,4.17,0.41,8.35,0.62,13.02c-0.13,7.58-1.44,15.47-2.96,23.39
		C195.39,322.98,195.27,323.49,195.16,324z"/>
	<path fill="#51401B" d="M106.57,192.5c-0.09,1.46,0,2.91,0.26,4.35c0.45,0.09,0.94,0.18,1.45,0.27c-0.09-0.33-0.18-0.67-0.26-1.01
		c-1.29-5.5,0.75-10.27,3.38-14.85c1.45-2.52,4.5-3.13,7-1.38c1.29,0.9,2.29,1.46,3.97,0.92c1.72-0.56,3.64,0.19,4.73,1.43
		c2.61,2.95,6.11,4.53,9.19,6.75c3.81,2.74,6.79,6.37,9.21,10.42c0.5,0,0.98,0,1.49,0c0.07,0,0.13,0,0.2,0
		c-0.88-1.31-1.74-2.65-2.74-3.87c-2.96-3.64-6.01-7.25-10.38-9.27c-1.6-0.74-2.84-1.66-4.05-2.94c-2.33-2.47-5.03-4.53-8.81-3.62
		c-0.54,0.13-0.85-0.09-1.2-0.36c-1.91-1.48-4.01-2.17-6.76-1.28c2-3.42,2.01-6.62,0.5-10.26c-0.31,0.67-0.59,0.98-0.54,1.2
		c1.07,3.92-0.22,7.32-2.18,10.61c-0.65,1.08-1.19,2.22-1.75,3.35c-1.59,3.22-2.52,6.39-2.71,9.5L106.57,192.5
		C106.58,192.5,106.57,192.5,106.57,192.5z"/>
	<path fill="#51401B" d="M103.94,264.99c-0.07,0.54-0.13,1.08-0.19,1.63c0.34,0.23,0.9,0.47,1.68,0.72c0.25-1.05,0.48-2.1,0.7-3.15
		C105.02,264.46,104.34,264.73,103.94,264.99z"/>
	<path fill="#51401B" d="M113.05,207.82c1.16,0.51,1.98,1.14,2.31,2.33c1.55,5.62,3.71,11.03,5.03,16.75
		c0.43,1.86,0.64,3.66,0.65,5.41c0.43,0.08,0.9,0.17,1.4,0.25c-0.9-5.66-1.98-11.16-3.6-16.68c21.91,1.18,43.71,2.42,65.58,0.81
		c-1.38,5.11-3.27,10.14-4.29,15.47c0.57-0.11,1.08-0.22,1.54-0.33c0.01-0.04,0.02-0.08,0.03-0.12c0.18-0.66,0.38-1.31,0.57-1.96
		c-0.09-0.02-0.16-0.04-0.27-0.06l0.21-0.98c0.13,0.03,0.23,0.05,0.34,0.08c2.1-6.88,4.69-13.6,6.95-20.48
		c2.7,15.59,0.12,31.03-0.05,46.54c-0.9-0.06-1.1-0.77-1.41-1.28c-2.4-4.11-4.86-8.21-6.59-12.66c-1.03-2.65-0.73-5.34-0.07-8.02
		c-0.45,0.11-0.94,0.21-1.45,0.31c-0.3,1.77-0.49,3.57-0.53,5.43c-18.94,2.95-37.69,0.98-56.39-2.22c-0.14-0.95-0.28-1.89-0.42-2.83
		c-0.55-0.09-1.08-0.18-1.58-0.28c-0.15,4.65-1.67,8.97-4.11,13.22c-3.07,5.34-6.15,10.68-8.72,16.27l0.15,0.98
		c-0.23,0.04-0.44,0.07-0.65,0.11c-0.54,1.21-1.04,2.44-1.52,3.68c0.42,0.11,0.88,0.23,1.39,0.35c1.69-4.17,3.58-8.25,5.91-12.15
		c3.08-5.17,6.2-10.32,8.53-15.89c0.31-0.74,0.51-1.53,0.79-2.39c18.9,3.64,37.8,6.72,57.05,2.44c1.07,5.33,3.92,10.05,6.54,14.87
		c2.31,4.25,4.48,8.55,6.3,13.01c0.79-0.17,1.48-0.34,2.05-0.51c-0.27-0.88-0.58-1.75-0.93-2.61c-0.04-0.01-0.07-0.01-0.11-0.02
		l0.03-0.17c-0.38-0.92-0.79-1.82-1.3-2.69c-0.91-1.58-1.19-3.34-1.18-5.14c0.05-8.7,0.35-17.39,0.83-26.08
		c0.61-11.07-0.15-22.15-0.63-33.19c-0.7,0.17-1.48,0.33-2.31,0.48c0.1,1.63,0.16,3.25-0.09,4.87c-0.63,4.07-2.32,7.83-3.63,11.7
		c-0.34,1.01-1.02,0.88-1.76,0.94c-4.7,0.36-9.42,0.34-14.12,0.54c-5.81,0.24-11.61,0.45-17.42,0.25
		c-10.8-0.36-21.61-0.66-32.38-1.69c-1.65-0.16-1.72-0.14-2.92-3.63c-0.05-0.14-0.1-0.28-0.15-0.43c0.06,0.01,0.12,0.02,0.17,0.04
		c4.67,1.07,9.38,1.76,13.98,0.31c3.52-1.11,6.81-2.91,10.27-4.25c3.43-1.32,6.61-0.84,9.69,1.35c5.68,4.04,11.96,6.33,19.08,5.68
		c0.29-0.03,0.59-0.06,0.87-0.15c0.11-0.03,0.17-0.22,0.58-0.81c-2.27,0-4.26,0.29-6.13-0.05c-5.58-1.01-10.3-3.86-15.01-6.95
		c-1.95-1.28-4.91-1.37-7.5-0.73c-2.32,0.57-4.42,1.74-6.64,2.57c-5.91,2.22-12.01,3.64-18.15,1.29c-4.96-1.89-7.75-5.74-9.27-10.51
		c-0.54-0.09-1.05-0.19-1.55-0.28c0.66,2.72,1.98,5.39,4.04,7.99c0.28,0.36,0.59,0.63,0.51,1.16c-0.39,2.41-0.77,4.83-1.14,7.25
		c-0.77,5.01-1.62,10.01-1.82,15.08c-0.26,6.61-0.13,13.2-1.63,19.78c-1.1,4.83-2.24,9.69-2.92,14.62c0.57-0.24,1.31-0.46,2.27-0.67
		C110.1,244.9,110.63,226.27,113.05,207.82z"/>
	<path fill="#51401B" d="M148.73,200.4c-0.58,0-1.16,0-1.72,0c-0.25,0-0.52,0-0.77,0c0.26,0.32,0.52,0.62,0.75,0.92
		C147.77,201.2,148.3,200.86,148.73,200.4z"/>
	<path fill="#51401B" d="M149.43,199.4c0.03-0.05,0.06-0.1,0.09-0.15c3.67-6.73,9.32-11.34,16.01-14.84c1.77-0.93,3.5-1,5.31-0.19
		c0.63,0.28,1.19,0.65,2.03,0.04c4.24-3.1,10.02-2.29,13.66,1.46c1.87,1.93,2.71,3.93,2.49,6.55c-0.13,1.53-0.03,3.07,0.07,4.61
		c0.87-0.15,1.65-0.31,2.33-0.46c-0.23-5.43-0.42-10.99-1.56-16.38c-0.51-2.44-0.27-5.14-2.42-7.72c0.55,4.91,1.33,9.23,1.03,14.04
		c-2.66-3.26-5.53-5.16-9.53-5.24c-4.21-0.08-7.94,2.82-12.25,1.75c-0.12-0.03-0.29,0.06-0.43,0.12
		c-7.85,3.49-14.24,8.54-18.09,16.41C148.59,199.4,149.01,199.4,149.43,199.4z"/>
	<path fill="#51401B" d="M95.63,309c-1.12-8.2-3.24-16.28-5.08-24.38c-1.5-6.63-1.96-13.36-2.18-20.11
		c-0.11-3.38,0.28-6.78,0.29-10.18c0.01-5.52,0.22-11.04,1.75-16.37c1.51-5.27,3.5-10.4,5.04-15.66
		c3.43-11.76,3.64-23.98,4.87-36.04c0.84-8.29,0.91-16.66,1.55-24.98c0.49-6.37,3.42-11.33,9.36-14.21c0.5-0.24,1.15-0.3,1.37-1.19
		c-1.74,0.03-3.38,0.53-5.4,0.11c3.77-0.99,4.86-2.81,4.04-6.31c-0.93-3.97-3.49-7.18-5.1-10.83c-0.72-1.62-1.68-3.12-1.73-5.01
		c-0.16-6.45,2.86-11.12,8.17-14.36c4.66-2.84,9.06-5.95,10.83-11.36c1.3-3.99,2.22-8.1,4.38-11.76c0.1-0.17,0-0.45,0.06-0.66
		c1.2-4.24,2.38-8.49,6.58-10.91c1.69-0.98,3.53-1.55,5.5-1.85c-0.95-0.6-1.84-0.52-2.77-0.24c-5.03,1.49-7.87,4.99-9.3,9.89
		c-0.66,2.25-0.76,4.76-2.63,6.75c-0.16-4.02,1.6-9.95,3.91-13.77c1.99-3.31,4.74-5.6,8.51-6.63c-2.05-3.29-1.12-3.99,1.34-5.92
		c0.62-0.48,1.38-0.78,2.23-0.96c5.5-1.15,10.87-0.13,16.11,1.22c14.52,3.73,26.58,16.93,24.22,34.91
		c-0.95,7.18,1.08,13.76,7.32,18.41c2.38,1.77,4.78,3.55,6.79,5.76c4.62,5.08,4.56,11.52-0.16,16.39c-0.93,0.96-1.89,1.91-2.77,2.92
		c-0.94,1.08-1.45,2.27-0.56,3.65c0.97,1.5,2.29,2.32,4.13,2.05c0.41-0.06,0.77-0.53,1.25-0.17c-3.17,2.43-5.95,1.59-7.92-2.88
		c-0.3,2.06,0.32,3.13,1.41,4.1c1.86,1.65,3.83,1.2,5.83,0.41c1.51-0.6,2.25-1.65,1.87-3.44c-0.28,0.19-0.52,0.33-0.73,0.5
		c-1.51,1.22-3.03,0.91-4.23-0.31c-1.33-1.35-0.44-2.57,0.66-3.63c0.48-0.46,0.91-0.98,1.43-1.4c5.99-4.81,5.73-10.67,2.08-16.65
		c-2.18-3.58-5.63-5.89-8.76-8.45c-4.14-3.4-5.85-7.77-6.08-12.88c-0.12-2.69-0.03-5.39,0.05-8.08c0.2-7.14-1.36-13.73-5.89-19.44
		c-2.95-3.71-6.37-6.89-10.42-9.35c-7.61-4.62-16.04-5.74-24.67-5.24c-4.61,0.27-7.16,3.83-6.37,7.75
		c-2.63,0.95-4.92,2.29-6.59,4.67c-3.53,5.02-5.33,10.65-5.53,16.68c-0.14,4.08-2.24,6.25-5.63,7.68c-2.19,0.92-4.45,1.65-6.6,2.64
		c-4.77,2.2-7.49,7.24-5.85,11.68c0.66,1.78,0.29,2.8-0.46,4.19c-2.54,4.68-2.58,9.3,0.2,14c1.73,2.94,3.14,6.08,4.53,9.21
		c0.78,1.76,1.04,3.7-0.83,5.07c-1.69,1.24-4.63,0.71-6.34-0.95c-0.43-0.42-0.56-1.33-1.5-1.08c-0.19,2.83,2.42,5.07,6.79,5.66
		c-5.94,3.96-7.66,9.86-8.02,16.4c-0.22,4.1-0.3,8.2-0.64,12.29c-0.72,8.54-1.64,17.06-2.36,25.59c-0.66,7.81-1.77,15.53-4.05,23.05
		c-1.44,4.76-3.37,9.38-4.57,14.19c-1.41,5.64-1.62,11.48-1.84,17.3c-0.37,9.82,0.28,19.58,1.95,29.21
		c1.38,7.98,3.55,15.82,5.3,23.74c1.07,4.85,1.87,9.76,3.18,14.55h1.81C97.47,319.07,96.33,314.11,95.63,309z M111.29,100.77
		c1.59-0.78,3.31-1.29,4.98-1.9c2.27-0.83,4.42-1.88,6.65-3.67c-1.27,4.68-3.5,8.15-7.11,10.68c-3.09,2.17-6.47,3.96-8.88,7.06
		C104.53,108.48,106.46,103.12,111.29,100.77z"/>
	<path fill="#51401B" d="M207.94,289.45c0.62-6.68,1.61-13.33,2.09-20.02c0.77-10.72-1.26-21.23-2.88-31.76
		c-0.46-2.98-2.05-5.81-1.62-8.89c1.01-7.24,1.06-14.55,1.84-21.81c0.78-7.2,1.28-14.43,2.01-21.64c0.66-6.54,1.08-13.06-0.19-19.58
		c-1.24-6.41-4.6-11.02-10.96-13.15c-2.81-0.94-5.61-1.91-8.44-2.81c-1.21-0.39-2.29-0.85-3.77-0.63c-1.61,0.23-3.51-0.68-4.12-2.49
		c-0.54-1.62,1.11-2.24,2.11-3.06c0.29-0.24,0.62-0.41,0.92-0.63c5.55-4.09,6.95-9.21,4.5-15.72c-2.25-5.96-7.12-9.61-12.29-12.83
		c-3.7-2.31-5.82-7.63-4.45-11.78c0.72-2.18,1.44-4.36,2.19-6.53c2.94-8.52,0.64-15.66-6.91-20.48c-4.76-3.04-9.67-5.88-14.64-8.55
		c-2.86-1.53-5.86-2.96-9.31-2.74c-1.49,0.1-2.36,0.97-2.87,2.15c-0.52,1.19-0.4,2.42,0.73,3.39c0.59-0.53,0.29-1.07,0.26-1.54
		c-0.13-2.08,0.97-2.85,2.87-2.75c0.73,0.04,1.47,0.22,2.18,0.4c6.01,1.56,10.48,5.59,14.93,9.55c3.27,2.91,5.16,6.75,6.38,11.02
		c1.59,5.59,1.44,11.34,2.09,17.01c0.58,5.11,1.91,9.68,7.11,12.23c2.73,1.34,5.08,3.43,7.11,5.74c3.44,3.9,5.61,8.24,4.2,13.67
		c-0.92,3.55-3.76,5.46-6.38,7.52c-1.31,1.03-2.5,2.04-2.1,3.85c0.39,1.78,1.8,2.52,3.4,3.19c1.38,0.57,2.87-0.08,4.14,0.62
		c2.56,1.4,5.28,2.4,8.05,3.24c8.8,2.69,12.42,8.44,12.62,17.48c0.14,6.36-1.02,12.61-1.6,18.9c-0.79,8.45-1.94,16.88-2.3,25.37
		c-0.22,5.14-0.87,10.35-0.32,15.41c0.57,5.29,1.36,10.59,2.22,15.85c1.8,11.07,1.9,22.14,0.54,33.21
		c-1.44,11.71-1.85,23.43-0.7,35.15c0.3,3.02,0.88,5.99,1.58,8.95h1.91c-1.01-3.63-2.31-7.2-2.47-11.07
		C207.25,305.08,207.21,297.26,207.94,289.45z M163.04,74.5c4.04,0.42,9.56,5.09,11.43,9.9c2.39,6.15-0.46,11.6-2.65,17.12
		C171.23,91.79,170.86,82.06,163.04,74.5z"/>
	<path fill="#51401B" d="M166.3,146.7c-0.02,0.01-0.05,0.01-0.07,0.01c0.05,0.02,0.09,0.04,0.15,0.05
		C166.37,146.76,166.31,146.7,166.3,146.7z"/>
	<path fill="#51401B" d="M179.47,138.46c1.74-6.53-0.18-11.97-5.14-16.5c-2.44-2.23-5.4-3.81-7.05-7.01
		c-2.43-4.68-2.53-9.73-2.97-14.7c-0.9-10.27-4.33-19.29-11.9-26.55c-1.91-1.84-4.15-2.88-6.65-3.38c-1.74-0.35-3.71,1.11-4.24,2.93
		c-0.43,1.51,0.2,3.06,1.5,3.64c-0.76-3.15-0.31-4.74,1.5-5.34c2.06-0.68,5.9,1.06,6.84,3.09c-4.42-0.39-5.57,0.04-6.37,2.35
		c0.33,0.16,0.55-0.04,0.78-0.23c2.59-2.09,6.17-1.66,7.9,1.18c3.1,5.11,4.59,10.72,4.79,16.71c-0.86,0.52-2.08,0.56-2.17,1.83
		c1.02,0.62,1.63-0.46,2.47-0.32c0.16,1.46,0.33,2.92,0.52,4.58c-0.66-0.35-1.25-0.55-1.6,0.39c1.51,0.83,2.5,2.1,2.97,3.85
		c1.08,4.05,2.93,7.79,5.24,11.25c0.87,1.3,0.82,2.23,0.37,3.6c-1.79,5.46-9.43,11.67-17.45,10.14c-5.57-1.06-9.64-3.81-12.12-9.1
		c-1.93-4.13-3.22-8.44-4.53-12.87c-2.49,0.15-4.3-1-5.22-3.12c-1.1-2.53-1.64-5.19-0.91-8.01c0.78-3.06,1.5-3.42,3.81-1.74
		c-0.35-5.7,3.38-9.34,6.99-13.12c-1.11-0.27-1.75,0.24-2.33,0.83c-2.26,2.31-4.06,4.96-5.17,7.99c-0.41,1.12-0.66,1.89-2.1,2.02
		c-0.99,0.08-1.66,1.04-2.08,2.12c-1.23,3.15-1.28,6.28,0.03,9.34c0.91,2.12,0.35,3.7-1.21,5.18c-2.05,1.95-4.22,3.77-6.04,5.96
		c-4.14,4.99-5.57,12.7,0.49,18.26c1.86,1.71,3.1,3.81,3.97,6.1c1.42,3.73,0.63,5.45-2.99,7.11c-0.34,0.16-0.99,0.04-0.88,0.76
		c2.62,0.4,5.23-1.69,5.25-4.28c0.04-3.88-1.95-6.91-4.22-9.81c-1.23-1.57-2.84-2.92-3.37-4.95c-1.42-5.45,0.53-9.91,4.18-13.84
		c2.25-2.42,5.2-4.26,6.27-7.64c3.77,2.1,3.83,2.25,1.14,5.63c-1.57,1.99-3.29,3.86-4.9,5.81c-4.98,6.02-4.05,13.28,2.24,17.64
		c0.73,0.51,1.48,1.01,2.27,1.43c2.46,1.32,3.09,3.79,3.45,6.16c0.2,1.33-0.31,2.98-2.21,3.43c-0.46,0.11-1.47,0.11-1.23,1.17
		c2.81-0.27,3.81-1.08,4.06-3.65c0.36-3.69-1.29-6.44-4.38-8.32c-1.89-1.15-3.43-2.58-4.69-4.37c-2.49-3.54-1.36-9.15,1.94-13.22
		c2.47-3.04,5.59-5.69,6.45-9.85c0.92,0.73,0.66,1.74,0.9,2.57c1.38,4.83,3.75,9.63,0.63,14.66c-0.27,0.43-0.39,0.96-0.56,1.46
		c-1.06,3.2,0.47,7.48,3.29,9.26c1.91,1.2,3.86,0.7,5.91-0.11c-1.5,3.81-3.3,4.78-7.78,4.39c1,1.67,3.16,2.03,5.31,0.88
		c3.19-1.71,4.55-6.06,3-9.61c-0.31,1.77-0.41,3.69-2.92,4.2c0.57-1.79,1.15-3.39,0.93-5.09c-0.22-1.68-0.56-3.34-0.95-5.56
		c2.3,2.15,4.73,3.27,6.65,5.18c3.78,3.77,7.95,3.74,11.9,0.33c2.13-1.85,3.87-4.21,6.61-5.42c0.43,1.86-0.26,3.77,0.55,5.54
		c0.48,1.03,0.33,1.86-0.5,2.81c-1.88,2.15-2.76,4.75-2.59,7.62c0.18,3.09,2.55,5.16,5.09,4.58c-2.95-0.93-4-2.39-3.76-5.49
		c0.2-2.63,1.32-5.01,3.21-6.7c3.79-3.38,3.62-7.22,1.97-11.41c-0.61-1.55-1.08-3.07,0.04-4.75c4.22,3.26,9,5.93,10.95,11.38
		c1.97,5.5-0.09,10.28-2.78,14.98C177.76,142.99,178.84,140.8,179.47,138.46z M160.78,100.51c-1.42-6.72-1-13.81-4.15-20.19
		c6.68,8.86,6.6,19.48,7.94,30.4C162.81,107.06,161.5,103.9,160.78,100.51z M138.18,134.62c-0.02,0.74-0.41,1.33-1,1.63
		c-0.67,0.35-1.22-0.12-1.75-0.59c-2.43-2.14-2.64-4.91-2.08-7.77c0.41-2.09,1.21-4.11,1.9-6.38
		C138.31,125.57,138.31,130.08,138.18,134.62z M165.38,132.53c-0.14-3.69-1.03-6.85,0.89-10.46
		C167.2,125.77,168.71,129.03,165.38,132.53z"/>
	<path fill="#51401B" d="M144.62,117.87c0.02,1.51,1.47,1.77,1.87,2.82c0.91,2.38,3.03,3.05,5.22,2.85
		c2.96-0.26,4.93-2.34,6.72-4.56c-0.95-0.02-1.6,0.46-2.34-0.66c-1.37-2.07-5.11-2.68-7.36-1.33
		C147.44,117.76,146.18,118.32,144.62,117.87z"/>
	<path fill="#51401B" d="M166.33,146.71c-0.01,0-0.02-0.01-0.03-0.01c0,0,0,0,0,0c0.01,0.01,0.07,0.07,0.07,0.07
		C166.36,146.74,166.34,146.73,166.33,146.71z"/>
	<path fill="#51401B" d="M168.65,146.8c-1.3-0.62-2.83-1.17-2.54-2.88c0.37-2.18,1.99-3.47,4.18-4.85
		c-0.67,2.51-2.24,4.74,0.26,6.46c0.84,0.58,1.82,1.7,3.03,0.6c-0.05-0.48-0.28-0.62-0.57-0.73c-2.68-1.09-2.97-1.77-1.69-4.33
		c0.63-1.26,1.4-2.44,2.13-3.65c2.42-4.01,2.13-9.01-1.76-11.36c0.83,1.88,2.55,3.27,1.9,5.57c-0.55,1.98-1.32,3.79-2.81,5.21
		c-1.35,1.28-2.87,2.39-4.23,3.67c-2.32,2.19-2.35,3.91-0.22,6.2C167.05,146.94,167.73,147.96,168.65,146.8z"/>
	<path fill="#51401B" d="M149.99,191.57c1.74-3.2,3.12-6.25,5.13-8.98c2.07-2.8,4.74-4.91,7.59-7.37
		C157.22,176.16,149.36,186.29,149.99,191.57z"/>
	<path fill="#51401B" d="M134.09,94.88c4.14-1.7,8.35-0.84,12.6-0.6c-1.2-2.29-3.44-2.26-5.32-2.33
		C138.66,91.84,136.04,92.57,134.09,94.88z"/>
	<path fill="#51401B" d="M130.12,87.8c2.19-5.17,5.62-8.72,10.87-10.32C136.08,76.9,129.39,83.16,130.12,87.8z"/>
	<path fill="#51401B" d="M136.14,98.12c0.74,2.24,2.47,2.91,4.32,3.06c2,0.16,3.81-0.43,4.81-2.57
		C142.18,99.15,139.11,101.16,136.14,98.12z"/>
	<path fill="#51401B" d="M150.59,113.98c1.84,0.47,3.68-0.06,5.1-1.43c0.63-0.61,0.81-1.44-0.12-2.08c-2.32,2.91-3.87,3.9-7.07,0.45
		C148.08,112.96,149.44,113.69,150.59,113.98z"/>
	<path fill="#51401B" d="M117.25,144.14c-1.73,2.03-3.62,3.29-6.37,3.8C113.91,148.61,116.69,146.92,117.25,144.14z"/>
	<path fill="#51401B" d="M188.62,200.14c-3.54,6.33-8.01,11.12-15.22,12.62C179.17,213.63,188.75,205.84,188.62,200.14z"/>
	<path fill="#ED1C24" d="M108.6,198.2c9.68,1.64,26.09,2.18,37.64,2.21c0.26,0,0.52,0,0.77,0c0.57,0,1.14,0,1.72,0
		c13.55-0.06,30.89-0.79,40.41-2.54c0.83-0.15,1.61-0.31,2.31-0.48c2.96-0.71,4.74-1.55,4.74-2.56c0-1.3-0.48-1.72-4.06-2.42
		l-0.19,0.98c3.25,0.64,3.25,0.89,3.25,1.44c0,0.46-1.26,1.02-3.78,1.59c-0.68,0.15-1.47,0.31-2.33,0.46
		c-7.08,1.26-20.3,2.43-39.65,2.52c-0.41,0-0.84,0-1.26,0c-0.32,0-0.64,0-0.97,0c-0.07,0-0.13,0-0.2,0c-0.51,0-0.99,0-1.49,0
		c-18.46-0.05-30.51-1.1-37.24-2.28c-0.52-0.09-1-0.18-1.45-0.27c-3.58-0.72-5.25-1.45-5.25-2.02c0-0.69,0-1.55,5-2.33
		c0,0,0.01,0,0.01,0l-0.01-0.04l-0.15-0.95c-4.95,0.77-5.85,1.72-5.85,3.32c0,1.29,2.51,2.3,6.48,3.08
		C107.54,198.01,108.06,198.1,108.6,198.2z"/>
	<path fill="#ED1C24" d="M105.83,268.46c0.43,0.13,0.87,0.25,1.36,0.37c9.03,2.18,28.65,2.84,41.58,2.84
		c14.83,0,35.08-0.84,44.28-2.98c0.72-0.17,1.37-0.35,1.95-0.53c1.87-0.6,2.95-1.29,2.95-2.07c0-1.3-0.48-1.72-4.06-2.42l-0.16,0.81
		l-0.03,0.17c0.04,0.01,0.07,0.01,0.11,0.02c3.13,0.62,3.14,0.87,3.14,1.42c0,0.35-0.74,0.76-2.2,1.19
		c-0.57,0.17-1.26,0.34-2.05,0.51c-6.71,1.43-21.36,2.89-43.92,2.89c-21.89,0-35.05-1.39-41.2-2.77c-0.51-0.12-0.97-0.23-1.39-0.35
		c-0.27-0.07-0.51-0.15-0.74-0.22c-0.78-0.25-1.34-0.49-1.68-0.72c-0.27-0.18-0.41-0.36-0.41-0.52c0-0.34,0-0.72,0.6-1.11
		c0.4-0.26,1.07-0.53,2.2-0.8c0.44-0.1,0.96-0.21,1.56-0.31c0.21-0.04,0.42-0.07,0.65-0.11l-0.15-0.98l0,0
		c-0.69,0.11-1.29,0.22-1.83,0.33c-0.96,0.21-1.71,0.43-2.27,0.67c-1.4,0.6-1.75,1.34-1.75,2.32c0,0.56,0.47,1.06,1.33,1.52
		c0.42,0.23,0.94,0.44,1.54,0.64C105.41,268.34,105.62,268.4,105.83,268.46z"/>
	<path fill="#ED1C24" d="M116.75,230.72c0-0.5,0-1.12,3.51-1.71l-0.17-0.99c-3.66,0.61-4.35,1.42-4.35,2.69
		c0,1.09,2.06,1.94,5.28,2.58c0.5,0.1,1.03,0.19,1.58,0.28c7.3,1.2,18.88,1.58,26.9,1.58c8.69,0,22.8-0.46,30.44-1.95
		c0.51-0.1,1-0.2,1.45-0.31c2.4-0.58,3.87-1.3,3.87-2.19c0-1.07-0.48-1.43-2.7-1.92c-0.12-0.03-0.22-0.05-0.34-0.08l-0.21,0.98
		c0.1,0.02,0.17,0.04,0.27,0.06c1.96,0.43,1.98,0.6,1.98,0.95c-0.1,0.36-0.99,0.75-2.59,1.14c-0.46,0.11-0.97,0.22-1.54,0.33
		c-5.53,1.06-16.32,2-30.63,2c-13.07,0-21.9-0.75-27.07-1.6c-0.5-0.08-0.97-0.17-1.4-0.25
		C118.12,231.74,116.75,231.15,116.75,230.72z"/>
	<path d="M73.95,191.36v6.25c0,0.68,0.23,1.26,0.64,1.68c0.46,0.47,1.06,0.71,1.78,0.71c0.72,0,1.32-0.24,1.77-0.71
		c0.41-0.42,0.64-1,0.64-1.68v-6.25h-1.7v6.33c0,0.55-0.32,0.77-0.71,0.77s-0.71-0.22-0.71-0.77v-6.33H73.95z"/>
	<path d="M82.17,198.46c-0.26,0-0.43-0.1-0.53-0.2c-0.16-0.18-0.18-0.43-0.18-0.78h-1.7c0,0.88,0.14,1.48,0.56,1.9
		c0.38,0.38,1.01,0.62,1.85,0.62c0.83,0,1.47-0.26,1.86-0.64c0.44-0.43,0.55-1.03,0.55-1.9c0-1.55-0.31-2.03-1.39-2.47l-1.07-0.43
		c-0.49-0.2-0.59-0.36-0.59-0.9c0-0.29,0.04-0.47,0.14-0.61c0.1-0.13,0.25-0.23,0.49-0.23c0.25,0,0.4,0.08,0.49,0.22
		c0.14,0.19,0.14,0.47,0.14,0.77h1.7c0-0.86-0.19-1.55-0.66-1.98c-0.37-0.35-0.92-0.54-1.68-0.54c-0.65,0-1.16,0.19-1.57,0.54
		c-0.52,0.44-0.77,1.1-0.77,1.9c0,1.33,0.36,1.79,1.22,2.15l1.08,0.44c0.61,0.25,0.74,0.4,0.74,1.21c0,0.35-0.05,0.58-0.17,0.72
		C82.6,198.39,82.44,198.46,82.17,198.46z"/>
	<polygon points="88.32,199.9 88.32,192.9 89.76,192.9 89.76,191.36 85.17,191.36 85.17,192.9 86.61,192.9 86.61,199.9 	"/>
	<path d="M72.8,193.69c0-0.94-0.16-1.38-0.56-1.78c-0.37-0.36-0.94-0.55-1.79-0.55h-2.47v8.54h2.47c0.85,0,1.42-0.19,1.78-0.56
		c0.43-0.44,0.58-0.96,0.58-1.94c0-0.84-0.11-1.31-0.47-1.68c-0.1-0.11-0.24-0.22-0.4-0.3c0.17-0.08,0.29-0.18,0.4-0.29
		C72.69,194.77,72.8,194.3,72.8,193.69z M70.22,198.37h-0.54v-2.21h0.54c0.66,0,0.88,0.32,0.88,1.1
		C71.1,198.04,70.9,198.37,70.22,198.37z M70.25,194.72h-0.56v-1.82h0.56c0.67,0,0.85,0.29,0.85,0.91S70.9,194.72,70.25,194.72z"/>
	<polygon points="64.09,223.05 63.29,229.08 62.23,223.05 60.36,223.05 59.3,229.08 58.5,223.05 56.63,223.05 58.42,231.59 
		60.19,231.59 61.3,225.54 62.4,231.59 64.17,231.59 65.96,223.05 	"/>
	<path d="M67.74,231.59l0.28-1.33h1.97l0.28,1.33h1.78l-2.19-8.54h-1.68l-2.19,8.54H67.74z M69,225.56l0.66,3.17h-1.32L69,225.56z"
		/>
	<rect x="72.77" y="223.05" width="1.7" height="8.54"/>
	<path d="M77.93,222.98c-0.65,0-1.16,0.19-1.57,0.54c-0.52,0.44-0.77,1.1-0.77,1.9c0,1.33,0.36,1.79,1.22,2.15l1.08,0.44
		c0.61,0.25,0.74,0.4,0.74,1.21c0,0.35-0.05,0.58-0.17,0.72c-0.11,0.14-0.28,0.22-0.54,0.22c-0.26,0-0.43-0.1-0.53-0.2
		c-0.16-0.18-0.18-0.43-0.18-0.78h-1.7c0,0.88,0.14,1.48,0.56,1.9c0.38,0.38,1.01,0.62,1.85,0.62c0.83,0,1.47-0.26,1.86-0.64
		c0.44-0.43,0.55-1.03,0.55-1.9c0-1.55-0.31-2.03-1.39-2.47l-1.07-0.43c-0.49-0.2-0.59-0.36-0.59-0.9c0-0.29,0.04-0.47,0.14-0.61
		c0.1-0.13,0.25-0.23,0.49-0.23c0.25,0,0.4,0.08,0.49,0.22c0.14,0.19,0.14,0.47,0.14,0.77h1.7c0-0.86-0.19-1.55-0.66-1.98
		C79.24,223.17,78.68,222.98,77.93,222.98z"/>
	<polygon points="80.93,224.58 82.37,224.58 82.37,231.59 84.07,231.59 84.07,224.58 85.51,224.58 85.51,223.05 80.93,223.05 	"/>
	<polygon points="269.64,231.59 269.64,224.58 271.07,224.58 271.07,223.05 266.49,223.05 266.49,224.58 267.93,224.58 
		267.93,231.59 	"/>
	<path d="M263.59,224.49c0.65,0,0.7,0.65,0.71,1.01h1.7c-0.04-0.78-0.28-1.45-0.73-1.91c-0.41-0.4-0.96-0.64-1.68-0.64
		c-0.92,0-1.49,0.38-1.87,0.86c-0.6,0.73-0.63,1.86-0.63,3.5s0.04,2.77,0.63,3.5c0.38,0.48,0.95,0.86,1.87,0.86
		c1.46,0,2.41-0.92,2.41-2.63v-2.17h-2.41v1.38h0.71v0.89c0,0.47-0.14,1-0.71,1c-0.31,0-0.48-0.14-0.58-0.34
		c-0.2-0.4-0.23-1.46-0.23-2.49c0-1.03,0.02-2.1,0.23-2.49C263.11,224.63,263.28,224.49,263.59,224.49z"/>
	<polygon points="275.1,226.48 273.68,226.48 273.68,223.05 271.98,223.05 271.98,231.59 273.68,231.59 273.68,228.01 275.1,228.01 
		275.1,231.59 276.8,231.59 276.8,223.05 275.1,223.05 	"/>
	<polygon points="241.82,231.59 241.82,223.05 240.31,223.05 238.75,227.24 237.19,223.05 235.69,223.05 235.69,231.59 
		237.39,231.59 237.39,227.15 238.3,230.07 239.18,230.07 240.11,227.14 240.11,231.59 	"/>
	<polygon points="245.18,223.05 245.18,231.59 249.12,231.59 249.12,230.05 246.88,230.05 246.88,223.05 	"/>
	<polygon points="258.56,231.59 260.01,231.59 260.01,223.05 258.31,223.05 258.31,227.22 256.53,223.05 255.04,223.05 
		255.04,231.59 256.75,231.59 256.75,227.42 	"/>
	<path d="M226.86,230.26l0.28,1.33h1.78l-2.19-8.54h-1.68l-2.19,8.54h1.77l0.28-1.33H226.86z M225.87,225.56l0.66,3.17h-1.32
		L225.87,225.56z"/>
	<path d="M234.45,225.65c0-1.63-0.52-2.6-2.37-2.6h-2.44v8.54h1.7v-3.32h0.56l1.04,3.32h1.78l-1.25-3.69
		C234.31,227.38,234.45,226.56,234.45,225.65z M232.06,226.73h-0.72v-2.15h0.72c0.65,0,0.68,0.58,0.68,1.07
		S232.71,226.73,232.06,226.73z"/>
	<polygon points="254,224.58 254,223.05 250.06,223.05 250.06,231.59 254,231.59 254,230.05 251.77,230.05 251.77,228.05 
		253.69,228.05 253.69,226.52 251.77,226.52 251.77,224.58 	"/>
	<path d="M66.41,258.69v8.54h1.7v-3.09h0.71c1.85,0,2.4-1.06,2.4-2.72s-0.55-2.72-2.4-2.72H66.41z M69.52,261.41
		c0,0.54-0.02,1.19-0.74,1.19h-0.66v-2.38h0.66C69.49,260.22,69.52,260.87,69.52,261.41z"/>
	<rect x="63.38" y="258.69" width="1.7" height="8.54"/>
	<path d="M74.39,265.79c-0.26,0-0.43-0.1-0.53-0.2c-0.16-0.18-0.18-0.43-0.18-0.78h-1.7c0,0.88,0.14,1.48,0.56,1.9
		c0.38,0.38,1.01,0.62,1.85,0.62c0.83,0,1.47-0.26,1.86-0.64c0.44-0.43,0.55-1.03,0.55-1.9c0-1.55-0.31-2.03-1.39-2.47l-1.07-0.43
		c-0.49-0.2-0.59-0.36-0.59-0.9c0-0.29,0.04-0.47,0.14-0.61c0.1-0.13,0.25-0.23,0.49-0.23c0.25,0,0.4,0.08,0.49,0.22
		c0.14,0.19,0.14,0.47,0.14,0.77h1.7c0-0.86-0.19-1.55-0.66-1.98c-0.37-0.35-0.92-0.54-1.68-0.54c-0.65,0-1.16,0.19-1.57,0.54
		c-0.52,0.44-0.77,1.1-0.77,1.9c0,1.33,0.36,1.79,1.22,2.15l1.08,0.44c0.61,0.25,0.74,0.4,0.74,1.21c0,0.35-0.05,0.58-0.17,0.72
		C74.82,265.71,74.65,265.79,74.39,265.79z"/>
	<polygon points="62.06,267.23 62.06,258.69 60.36,258.69 60.36,262.12 58.94,262.12 58.94,258.69 57.24,258.69 57.24,267.23 
		58.94,267.23 58.94,263.65 60.36,263.65 60.36,267.23 	"/>
	<rect x="216.14" y="154.65" fill="#ED1C24" width="1" height="156.96"/>
	<polygon fill="#ED1C24" points="222.77,154.65 222.77,153.65 211.19,153.65 211.19,154.65 216.14,154.65 217.14,154.65 	"/>
	<polygon fill="#ED1C24" points="211.19,311.61 211.19,312.61 222.77,312.61 222.77,311.61 217.14,311.61 216.14,311.61 	"/>
</g>
</svg>
