<svg xmlns="http://www.w3.org/2000/svg" width="300" height="400" viewBox="270 80 450 516.05281"
    xmlns:xlink="http://www.w3.org/1999/xlink">
    <path d="M480.10889,187.41737c0,8.91721,4.46094,17.9913,13.37817,17.9913s21.22052-6.4584,18.45264-20.29788c-1.74884-8.74399-6.76752-13.83945-15.68469-13.83945-8.91718-.00006-16.14606,7.2287-16.14612,16.14587v.00015Z" fill="#2f2e41"/>
    <path d="M517.5152,314.82106c-1.83575-2.03625-1.67328-5.17517,.36298-7.01096,.21716-.19577,.45117-.37198,.69934-.52655l-3.9035-17.20386,8.58002,3.22827,2.39142,15.8421c1.29956,2.43094,.38232,5.45511-2.04858,6.75467-2.03412,1.08737-4.5484,.63934-6.08167-1.08374v.00006Z" fill="#a0616a"/>
    <path d="M499.30316,253.84254l5.98859,.60962s-1.56616,8.87137,.88312,10.86963,1.46198,1.98877,1.44775,3.4697c.15137,2.14999,1.20917,4.13437,2.90979,5.4585,1.96039,1.49988,6.03741,28.21201,6.03741,28.21201l8.88562,.08524c-.26501-2.29749-.2428-4.61905,.06628-6.91101,.52679-3.45078,3.18988-12.14304,2.2168-13.63345s-.46082-4.23111-.43243-7.19299-4.20868,.31082-4.16132-4.62561-5.38733-35.91211-4.85107-40.35019-4.8559-8.4393-4.8559-8.4393l-4.93646-.04736-9.19818,32.49524Z" fill="#e6e6e6"/>
    <path d="M435.72852,212.18318c-.56439,2.53561,1.03363,5.04868,3.56927,5.61304,.27032,.06018,.54547,.09637,.8222,.10812l4.80414,16.00943,5.5708-6.66409-5.41614-14.18115c-.06189-2.61102-2.22876-4.67749-4.83978-4.61557-2.18481,.05182-4.04956,1.59396-4.5105,3.73022Z" fill="#a0616a"/>
    <polygon points="502.026 257.32928 502.84799 261.24429 503.54599 275.6853 475.48199 271.88528 473.327 255.1633 476.30499 250.2693 502.026 257.32928" fill="#a0616a"/>
    <circle cx="492.92267" cy="191.89299" r="13.28229" fill="#a0616a"/>
    <path d="M506.82312,195.37504c-.12036-.01901-.24078-.0444-.36115-.06342-2.07184-.36746-4.14368-.72855-6.20917-1.10245l-.19012-4.68216-2.50262,4.19427c-5.70868,1.89441-11.0498,.8237-16.07416-1.53958-1.65729-.78674-3.26532-1.67328-4.81531-2.65469-1.08081-6.59528,1.64587-11.79291,8.6485-12.45639,.21747-.0206,.37378-.20273,.5639-.29785l.00629-.0061v-.00024c.32312-.15204,.65265-.29776,.98212-.43079,5.26477-2.0575,11.24384-.89819,15.35815,2.97784,4.15607,4.2283,5.8855,10.27515,4.59357,16.06155Z" fill="#2f2e41"/>
    <path d="M519.90723,302.49217c-.58759-3.92361-1.55206-7.78146-2.88-11.51999v-.01001c-1.11169-3.16122-2.49695-6.21948-4.14001-9.14001-.00543,.00012-.00989-.00418-.01001-.00958v-.00043c-2.36548-4.40219-5.45154-8.37717-9.13-11.76001l-.39001-.41h-.09998l-28.15997-.69h-.28998l-.32001-.01001s-.12,.35001-.34998,1.01001c-.00879,.04138-.02222,.08163-.03998,.12-.08002,.26001-.17999,.56-.29999,.89001-.07001,.22-.15002,.45001-.22998,.70001-.09003,.26999-.19,.54999-.28998,.85001-.78003,2.32996-1.91998,5.70999-3.32001,9.89999-.21002,.64001-.42999,1.29999-.65997,1.98999-5.34003,16.07001-13.92999,42.32999-21.42999,67.22h26.59998c2.58002-7.46002,5.32001-18.09998,5.32001-18.09998,1.07001-1.27002,1.01001-4.71997,1.01001-4.71997l8.35999-8.78003,6.02002,31.59998h25.26001l.19-35.16998v-.29999c.19696-4.56589-.04419-9.14014-.72015-13.66Z" fill="#ccc"/>
    <path d="M501.73413,176.43657v.01123c-.00159,.69522,.0871,1.3877,.26379,2.06006,.02808,.11789,.06177,.24136,.10107,.35925v.00562c.76337,2.43408,2.62262,4.37021,5.0238,5.23154,.17401,.06735,.35364,.12347,.53326,.17401,.37842,.10974,.76514,.18857,1.15631,.23575,.35144,.0498,.70599,.07422,1.06091,.073,.2774,.00116,.55469-.01196,.83075-.03931,.646-.0654,1.28137-.21057,1.89166-.43222,.09558-.02777,.18927-.06149,.28064-.10101,.0459-.0163,.09088-.03503,.13477-.05612,4.15063-1.73746,6.10693-6.51068,4.36945-10.66132-.052-.12424-.10706-.24716-.16516-.36868l-.00562-.00562c-.39905-.83554-.94037-1.59531-1.59979-2.2453-1.47064-1.46506-2.11871-5.13666-4.35278-5.13666-.10681-.00186-.21362,.00186-.32001,.0112-1.49872,.05054-4.26917,3.28433-5.44794,4.04773-.87549,.55307-1.6344,1.27197-2.23407,2.11621-.62622,.86847-1.07275,1.85315-1.31354,2.89642-.13763,.59833-.20728,1.21027-.20752,1.82422Z" fill="#2f2e41"/>
    <path d="M511.67871,173.6024c1.26398,1.47159,3.24304,2.04361,5.02832,2.80942,6.39685,2.80627,10.99585,8.58957,12.28943,15.45407,.49359,2.754,.42902,5.60501,1.20868,8.28983,.77502,2.68484,2.69403,5.319,5.44812,5.78491,1.86371,.3183,3.73199-.40134,5.48499-1.11179,.96411-.38748,1.92834-.77652,2.89246-1.16711-1.00562-2.52344-2.00977-5.04681-3.01239-7.57019,1.61133,2.38144,3.48529,4.57416,5.58655,6.53687,3.4552-1.39319,6.91351-2.78638,10.375-4.17953-8.51587,.03229-7.06274-8.23447-8.96802-16.5289-1.04718-4.5578-9.96442-7.64401-11.71283-11.98038-2.73077-6.79852-10.45581-10.09607-17.25433-7.3653-2.92963,1.17673-5.34351,3.35971-6.80786,6.15665-1.74829,.69656-1.79901,3.4183-.55811,4.87146Z" fill="#2f2e41"/>
    <path d="M475.50885,270.97316c-3.97705,1.03705-7.19592,3.95279-8.62012,7.80817-.50397,1.08948-.49072,2.34793,.03607,3.42654,.4118,.77005,1.32892,1.11777,2.14777,.8143,.82245-.44318,1.47845-1.14185,1.86902-1.99057,.573-1.08914,1.06549-2.21878,1.47351-3.37985,.66815-1.75208,2.09351-4.67673,.05847-6.04651-1.71155-1.15201-3.9776-.7045-5.90344-.78351-2.08112-.08536-4.39417-.88235-5.13348-3.03937-.71899-2.09769,.96667-4.07077,2.78381-4.86847,2.21844-.9198,4.74878-.67877,6.75366,.64334,1.95148,1.35275,3.34503,3.3685,3.9212,5.67206,.08899,.37198-.14038,.7457-.51239,.83472-.35419,.08472-.71344-.11926-.82214-.46683-.51025-2.13724-1.85596-3.98071-3.73602-5.11801-1.86792-1.07773-4.18872-.98706-5.96686,.23312-.93304,.58066-1.36639,1.71072-1.06091,2.76636,.46881,.93674,1.3515,1.59796,2.38226,1.78455,2.19574,.53091,4.49237-.15613,6.68103,.54514,2.03723,.52206,3.33582,2.51675,2.98877,4.591-.22772,1.2446-.59662,2.4592-1.09943,3.62027-.42719,1.19376-.92651,2.36041-1.4953,3.49356-.8689,1.64224-2.43567,3.42001-4.5033,2.93839-2.35651-.54886-2.91602-3.3002-2.41101-5.3237,1.36646-4.66922,5.08997-8.27432,9.8009-9.48926,.37207-.08868,.74561,.14102,.83429,.51309,.08435,.35379-.11932,.71252-.46637,.82141v.00006Z" fill="#ccc"/>
    <path d="M579.54724,352.62214h-164c-3.86414-.00452-6.99548-3.13586-7-7V122.62214c.00433-3.8642,3.1358-6.99567,7-7h164c3.8642,.00433,6.99567,3.1358,7,7v223c-.00452,3.86414-3.13586,6.99548-7,7ZM415.54724,117.62214c-2.76007,.00323-4.99677,2.23993-5,5v223c.00323,2.76007,2.23993,4.99677,5,5h164c2.76007-.00323,4.99677-2.23993,5-5V122.62214c-.00323-2.76007-2.23993-4.99677-5-5h-164Z" fill="#3f3d56"/>
    <path d="M696,248.62214h-53c-7.17969,0-13-5.82031-13-13s5.82031-13,13-13h53c7.17969,0,13,5.82031,13,13s-5.82031,13-13,13Z" fill="#9ec1a3"/>
    <rect x="565.10378" y="180.79356" width="2.00018" height="102.42963" transform="translate(325.94293 794.70208) rotate(-89.17239)" fill="#3f3d56"/>
    <path d="M510.60974,236.69395c-2.7663,.00638-5.01398-2.23096-5.02039-4.99725s2.23096-5.01401,4.99725-5.02039,5.01398,2.23096,5.02039,4.99725c.00446,1.91803-1.08685,3.67017-2.81024,4.51208-.68109,.33289-1.42889,.50668-2.18701,.5083Zm-.00684-8.00439c-1.65814-.00006-3.00238,1.34406-3.00244,3.0022-.00012,1.65811,1.34406,3.00238,3.00214,3.00244,1.65814,.00009,3.00244-1.34406,3.0025-3.00217,0-.45584-.10376-.9057-.30347-1.31546v-.00052c-.50409-1.03107-1.55103-1.68533-2.69873-1.68652v.00003Z" fill="#3f3d56"/>
    <path d="M696,351.62214h-53c-7.17969,0-13-5.82031-13-13s5.82031-13,13-13h53c7.17969,0,13,5.82031,13,13s-5.82031,13-13,13Z" fill="#9ec1a3"/>
    <rect x="565.10378" y="283.79362" width="2.00018" height="102.42963" transform="translate(222.95362 896.2144) rotate(-89.17239)" fill="#3f3d56"/>
    <path d="M510.60925,339.69343c-2.76208,.00269-5.00336-2.23419-5.0061-4.99628-.00269-2.76208,2.23419-5.00342,4.99628-5.0061,1.91394-.00189,3.66113,1.08875,4.50006,2.80902h0c1.20917,2.48511,.1748,5.47986-2.31024,6.68903-.67932,.33051-1.42456,.50293-2.17999,.50433Zm-.00635-8.00391c-1.6582-.00024-3.00256,1.34381-3.00281,3.00195-.00024,1.6582,1.34375,3.00262,3.00195,3.00287,1.6582,.00018,3.00256-1.34381,3.00281-3.00201,.00006-.45575-.10364-.90558-.30322-1.31531h0c-.5036-1.03162-1.55072-1.6864-2.69873-1.6875Z" fill="#3f3d56"/>
    <path d="M378.97009,351.50099c2.53369-2.03387,2.93896-5.73663,.90509-8.27032-.19702-.24542-.41339-.47467-.64709-.68549l9.52466-27.73206-7.02295-4.52042-11.07172,33.02054c-1.98859,2.56366-1.52234,6.25397,1.04132,8.24255,2.14508,1.66388,5.15088,1.64124,7.27069-.05475v-.00006Z" fill="#ffb6b6"/>
    <path d="M387.09845,274.98436c-1.68225,7.116-4.19318,13.33194-3.85303,16.31708,.33661,2.97699-3.30139,5.83762-2.14526,8.1908,1.15387,2.35901-2.39819,2.61148-1.43774,6.40799,.96399,3.80472,1.59015,4.61838,.77643,5.24454-.81952,.62381-5.14917,15.14536-5.14917,15.14536l2.53961,.93073,7.41052,2.70343,17.41425-28.6424-.05273-35.15689-4.32391-.13879c-1.03815,.38925-2.18799,.85626-3.3349,1.41901-3.50244,1.69095-7.04578,4.19019-7.84406,7.57916Z" fill="#9ec1a3"/>
    <polygon points="451.224 498.06228 460.28 498.06228 464.58801 463.1333 451.22198 463.1333 451.224 498.06228" fill="#ffb6b6"/>
    <path d="M463.29303,498.87788v-6.13916l-2.38068,.14545-9.69098,.5741-2.24286,.13776-1.71466,20.56085-.09186,1.10229h6.42999l.20673-1.0946,.93384-4.97565,2.41132,4.97565,.5282,1.0946h17.0473c2.11127-.01337,3.81824-1.72382,3.82739-3.83508,.71948-3.36047-13.45728-10.62488-15.26373-12.5462Z" fill="#2f2e41"/>
    <polygon points="345.13101 488.20529 353.008 492.67428 373.992 464.42028 362.367 457.82528 345.13101 488.20529" fill="#ffb6b6"/>
    <path d="M355.22992,494.86677l3.02368-5.33545-2.12799-1.04871-8.71887-4.27899-2.02087-.99512-9.92828,14.5365-2.33478,3.414,2.64093,1.50037,2.94714,1.67639,3.99579-4.71533-.44397,6.72858,13.92413,7.90741h.00769l.89563,.50519c1.84137,1.04028,4.17731,.39288,5.22052-1.44678,2.28113-2.57202-6.46075-15.8761-7.08075-18.44806Z" fill="#2f2e41"/>
    <path d="M406.28345,326.60231c-12.13501,8.04132-24.14795,85.29834-20.99524,84.03705l-28.60248,53.30493,14.61963,9.88416,52.86041-84.58105,17.57166,37.41681,7.25647,57.43201,18.2016-1.30011c-4.72961-64.70154-16.53845-132.94165-26.32489-159.33801l-34.58716,3.14423Z" fill="#2f2e41"/>
    <path d="M397.06989,332.33986l-.13208,.49677c12.82874,7.13757,47.94391-1.13,47.94391-1.13l-5.65973-18.23679,7.64081-40.51294c-.04126-6.54004-5.37653-11.80829-11.9165-11.767-.26874,.00168-.53729,.01254-.80524,.0325l-9.21906-6.82938-13.12427,.45279-8.77881,9.69699-5.24469,1.87399-4.07501,1.45267c-.82379,.74203-1.72308,1.59732-2.58459,2.54062l6.4458,38.36032,2.74182,11.47034-3.23236,12.09912Z" fill="#9ec1a3"/>
    <circle cx="418.37256" cy="236.03219" r="16.83945" fill="#ffb6b6"/>
    <path d="M396.23102,230.16591c.05029,.01901,.09424,.03799,.14453,.05701,.09595,.04242,.19458,.07837,.29529,.10764,.64221,.23581,1.31165,.38962,1.99237,.45782,.29028,.0314,.58203,.04681,.87402,.0462,.37439,.00128,.74847-.02298,1.11957-.07263,.41278-.05063,.82092-.1337,1.22064-.24844,.18964-.05081,.37659-.11124,.56012-.181,2.53424-.90024,4.49957-2.93692,5.3089-5.50165v-.00629c.04254-.12369,.07855-.24954,.10785-.37701,.18689-.70782,.28174-1.43677,.28217-2.16885v-.0126c.0047-1.78519-.55182-3.5267-1.591-4.9783-.62659-.88831-1.3504-1.03674-.9444-2.05246,1.29529-3.24014-4.00409-5.88879-7.13257-4.46408-.11285-.01077-.22626-.01526-.3396-.01346-2.10663-.00531-2.888,3.10556-4.14386,4.8569l.03638,.01184c.84253,.29498,1.28644,1.21716,.99146,2.05972-.16504,.47125-.53857,.83981-1.01202,.99847-.83624,.2724-1.68109,.51306-2.53461,.72192-2.81494,3.32465,.41217,13.05109,4.76477,10.75925Z" fill="#2f2e41"/>
    <path d="M397.78064,239.08079c.80084,3.60193,2.72095,6.85803,5.48529,9.30209,2.84924,2.30255,16.24902,7.75723,17.38019,3.08765-.75659,3.26187-.30072,4.50815,.91632,5.67462,.20825-.28244,.42902-.55228,.65613-.81586,.8363-.96362,1.83954-1.76846,2.96161-2.37589,.02905,1.97025-.11267,3.93927-.42365,5.88504,.50146,.46268,.97876,.95084,1.43005,1.46255,2.16705-6.45917,6.91718-14.19562,3.47809-20.077-1.36487-2.33417-.22675-2.65384,.98212-2.92172,2.11041-.46768,3.27429-9.129,3.77643-11.23441,.62299-2.63965,.86963-5.67642-.76624-7.84384s-5.7735-2.25964-6.61017,.32285l-1.74225-2.36887c-2.2514-4.95483-8.22803-3.96378-13.63153-3.32343-5.47949,.82996-10.19672,4.30994-12.60699,9.30038-2.32019,4.9838-2.77631,10.6344-1.2854,15.92581Z" fill="#2f2e41"/>
    <path d="M406.29913,216.44749c.2345,6.1077-3.1994,11.76566-8.72565,14.37701-1.09784,.49738-2.05365-1.13049-.94806-1.63141,4.94019-2.27884,8.01575-7.3147,7.78711-12.75034-.06293-1.21335,1.82385-1.2049,1.8866,.00476v-.00003Z" fill="#9ec1a3"/>
    <path d="M482.35498,225.76374c-3.13068,.86893-4.96423,4.11124-4.09534,7.24194,.08417,.30325,.19257,.5993,.3241,.88522l-19.69537,21.72275,4.66913,6.92499,23.20386-25.9715c2.83887-1.57086,3.86682-5.14563,2.29596-7.9845-1.31439-2.3754-4.08521-3.54077-6.70227-2.81894l-.00006,.00003Z" fill="#ffb6b6"/>
    <path d="M426.36957,296.23677s13.96893,2.50861,18.32233-3.37177,9.1134-10.5972,9.97937-13.47128,5.33551-4.06201,5.20331-6.68362,3.2348-1.45044,3.84821-5.32266,.3609-4.87033,1.35901-5.12286,10.70264-11.88412,10.70264-11.88412l-7.70654-7.26663-27.30139,19.44644-14.40692,33.67651Z" fill="#9ec1a3"/>
    <path d="M250.43817,514.8628c-.00195,.65527,.52765,1.18805,1.18292,1.19h290.29712c.65723,0,1.19-.53278,1.19-1.19s-.53278-1.19-1.19-1.19H251.6282c-.65527-.00195-1.18808,.52771-1.19003,1.18298v.00702Z" fill="#ccc"/>
</svg>