<svg width="18" height="18" viewBox="0 0 18 18" fill="none" xmlns="http://www.w3.org/2000/svg">
<path d="M9.00008 0.666504C4.40841 0.666504 0.666748 4.40817 0.666748 8.99984C0.666748 13.5915 4.40841 17.3332 9.00008 17.3332C13.5917 17.3332 17.3334 13.5915 17.3334 8.99984C17.3334 4.40817 13.5917 0.666504 9.00008 0.666504ZM8.37508 5.6665C8.37508 5.32484 8.65842 5.0415 9.00008 5.0415C9.34175 5.0415 9.62508 5.32484 9.62508 5.6665V9.83317C9.62508 10.1748 9.34175 10.4582 9.00008 10.4582C8.65842 10.4582 8.37508 10.1748 8.37508 9.83317V5.6665ZM9.76675 12.6498C9.72508 12.7582 9.66675 12.8415 9.59175 12.9248C9.50842 12.9998 9.41675 13.0582 9.31675 13.0998C9.21675 13.1415 9.10841 13.1665 9.00008 13.1665C8.89175 13.1665 8.78341 13.1415 8.68342 13.0998C8.58342 13.0582 8.49175 12.9998 8.40841 12.9248C8.33342 12.8415 8.27508 12.7582 8.23342 12.6498C8.19175 12.5498 8.16675 12.4415 8.16675 12.3332C8.16675 12.2248 8.19175 12.1165 8.23342 12.0165C8.27508 11.9165 8.33342 11.8248 8.40841 11.7415C8.49175 11.6665 8.58342 11.6082 8.68342 11.5665C8.88342 11.4832 9.11675 11.4832 9.31675 11.5665C9.41675 11.6082 9.50842 11.6665 9.59175 11.7415C9.66675 11.8248 9.72508 11.9165 9.76675 12.0165C9.80842 12.1165 9.83342 12.2248 9.83342 12.3332C9.83342 12.4415 9.80842 12.5498 9.76675 12.6498Z" fill="#DA1E28"/>
</svg>
