<svg width="23" height="29" viewBox="0 0 23 29" fill="none" xmlns="http://www.w3.org/2000/svg">
<path d="M11.5 9.44334H9.76067C9.64679 9.4235 9.54078 9.35886 9.45773 9.25863C9.37468 9.15841 9.31882 9.0277 9.29812 8.88511C9.27741 8.74253 9.29291 8.59535 9.34241 8.46452C9.39191 8.33369 9.47288 8.22589 9.5738 8.15646L9.6888 8.10209C9.75061 8.08837 9.81386 8.08837 9.87567 8.10209H11.5C11.643 8.10209 11.7801 8.1737 11.8812 8.30116C11.9823 8.42863 12.0391 8.60151 12.0391 8.78177V8.84521C12.0217 9.01021 11.9576 9.16169 11.8585 9.27165C11.7594 9.3816 11.6321 9.44259 11.5 9.44334Z" fill="#CCCCCC"/>
<path d="M11.5 21.596H7.09408C6.99185 21.5952 6.89185 21.5582 6.80545 21.4894C6.71905 21.4205 6.64971 21.3224 6.60532 21.2063L5.45533 18.1703C5.41316 18.0698 5.39111 17.9578 5.39111 17.8441C5.39111 17.7304 5.41316 17.6184 5.45533 17.5178C5.5085 17.4179 5.58177 17.3375 5.66764 17.285C5.75351 17.2325 5.8489 17.2096 5.94408 17.2188H11.5C11.643 17.2188 11.7801 17.2904 11.8812 17.4178C11.9823 17.5453 12.0391 17.7182 12.0391 17.8985V20.9344C12.0336 21.1108 11.9746 21.2777 11.8743 21.4008C11.7739 21.5239 11.64 21.5938 11.5 21.596ZM7.43189 20.2366H10.9609V18.56H6.79939L7.43189 20.2366Z" fill="#CCCCCC"/>
<path d="M17.056 18.5597H5.9441C5.84187 18.5589 5.74187 18.5219 5.65547 18.4531C5.56907 18.3842 5.49973 18.2861 5.45535 18.17L3.06191 11.8262C3.03163 11.7391 3.01599 11.645 3.01599 11.5498C3.01599 11.4547 3.03163 11.3606 3.06191 11.2734C3.0873 11.1826 3.12812 11.0999 3.1815 11.031C3.23488 10.9621 3.29954 10.9088 3.37097 10.8747L9.58097 8.15591C9.66833 8.12902 9.75955 8.12902 9.84691 8.15591H13.1675C13.25 8.12905 13.3366 8.12905 13.4191 8.15591L19.6291 10.8747C19.7004 10.9057 19.7656 10.9558 19.8202 11.0215C19.8747 11.0871 19.9174 11.1669 19.9453 11.2553C19.9756 11.3424 19.9913 11.4365 19.9913 11.5317C19.9913 11.6268 19.9756 11.721 19.9453 11.8081L17.5519 18.1518C17.5091 18.2727 17.4395 18.3755 17.3516 18.4478C17.2636 18.5202 17.161 18.559 17.056 18.5597ZM6.28191 17.2184H16.7182L18.6875 11.9168L13.146 9.44279H9.83253L4.31253 11.9168L6.28191 17.2184Z" fill="#CCCCCC"/>
<path d="M13.2393 9.44287H11.4999C11.3576 9.44052 11.2215 9.36816 11.1208 9.24119C11.0201 9.11423 10.9627 8.94271 10.9609 8.76318C10.9586 8.576 11.0132 8.39481 11.1134 8.25668C11.2136 8.11855 11.3519 8.0339 11.4999 8.02005H13.1243C13.1861 8.00634 13.2494 8.00634 13.3112 8.02005L13.4262 8.07443C13.5303 8.12293 13.62 8.21075 13.683 8.32591C13.746 8.44107 13.7793 8.57795 13.7784 8.71787C13.7823 8.81056 13.7712 8.90328 13.746 8.99047C13.7207 9.07766 13.6818 9.15751 13.6314 9.22523C13.5811 9.29295 13.5204 9.34713 13.453 9.38453C13.3856 9.42193 13.3129 9.44177 13.2393 9.44287Z" fill="#CCCCCC"/>
<path d="M18.2059 26.281H4.79404C4.70052 26.2803 4.60871 26.2493 4.5274 26.1911C4.4461 26.1328 4.37802 26.0492 4.32969 25.9482C4.28136 25.8473 4.2544 25.7324 4.25138 25.6145C4.24837 25.4966 4.26941 25.3798 4.31248 25.2751L6.61248 20.5535C6.66141 20.4557 6.72934 20.3752 6.80983 20.3197C6.89033 20.2642 6.98073 20.2355 7.07248 20.2363H15.9059C15.9977 20.2355 16.0881 20.2642 16.1686 20.3197C16.2491 20.3752 16.317 20.4557 16.3659 20.5535L18.6875 25.2751C18.7305 25.3798 18.7516 25.4966 18.7486 25.6145C18.7456 25.7324 18.7186 25.8473 18.6703 25.9482C18.6219 26.0492 18.5539 26.1328 18.4726 26.1911C18.3912 26.2493 18.2994 26.2803 18.2059 26.281ZM5.74998 24.9579H17.25L15.6112 21.5957H7.39591L5.74998 24.9579Z" fill="#CCCCCC"/>
<path d="M15.9059 21.596H11.5C11.3576 21.5936 11.2216 21.5212 11.1209 21.3943C11.0202 21.2673 10.9628 21.0958 10.9609 20.9163V17.8803C10.9647 17.7032 11.0231 17.535 11.1238 17.4114C11.2245 17.2878 11.3595 17.2187 11.5 17.2188H17.0559C17.1477 17.2179 17.2381 17.2466 17.3186 17.3021C17.3991 17.3576 17.467 17.4381 17.5159 17.536C17.5581 17.6365 17.5801 17.7485 17.5801 17.8622C17.5801 17.9759 17.5581 18.0879 17.5159 18.1885L16.3659 21.2244C16.3219 21.3318 16.2562 21.4227 16.1754 21.4879C16.0947 21.5531 16.0017 21.5904 15.9059 21.596ZM12.0391 20.2366H15.5681L16.2006 18.56H12.0391V20.2366Z" fill="#CCCCCC"/>
<path d="M13.2394 9.44305H9.76062C9.61823 9.4407 9.4822 9.36834 9.3815 9.24138C9.28081 9.11441 9.22342 8.94289 9.22156 8.76336V7.12305C9.22156 6.94278 9.27835 6.7699 9.37945 6.64244C9.48054 6.51497 9.61765 6.44336 9.76062 6.44336H13.2394C13.3823 6.44336 13.5195 6.51497 13.6205 6.64244C13.7216 6.7699 13.7784 6.94278 13.7784 7.12305V8.76336C13.7766 8.94289 13.7192 9.11441 13.6185 9.24138C13.5178 9.36834 13.3818 9.4407 13.2394 9.44305ZM10.2997 8.08367H12.7003V7.80273H10.2997V8.08367Z" fill="#CCCCCC"/>
<path d="M11.4999 7.80281C11.3576 7.80047 11.2215 7.7281 11.1208 7.60114C11.0201 7.47418 10.9627 7.30266 10.9609 7.12313C10.9388 6.61143 10.8388 6.10988 10.6662 5.64594C10.485 5.28352 10.3942 4.86082 10.4058 4.43262C10.4173 4.00442 10.5306 3.59045 10.7309 3.24437C10.8449 3.08272 10.9842 2.95257 11.1401 2.86211C11.2959 2.77165 11.465 2.72284 11.6365 2.71875C12.1862 2.79462 12.6961 3.1161 13.074 3.625C13.1434 3.75981 13.1727 3.92127 13.1566 4.0807C13.1405 4.24014 13.0802 4.38725 12.9863 4.4959C12.8923 4.60455 12.7709 4.66772 12.6436 4.67419C12.5162 4.68066 12.3911 4.63002 12.2906 4.53125C12.1232 4.30231 11.9055 4.14141 11.6653 4.06906C11.6653 4.06906 11.6078 4.06906 11.5503 4.15969C11.4928 4.25031 11.4568 4.48594 11.6724 5.17469C11.8939 5.79755 12.0183 6.46825 12.039 7.15031C12.0317 7.32507 11.9719 7.48977 11.8718 7.61097C11.7717 7.73216 11.6387 7.80075 11.4999 7.80281Z" fill="#CCCCCC"/>
<path d="M18.1772 15.597C18.0846 15.5977 17.9935 15.5681 17.9128 15.5108C17.8321 15.4536 17.7647 15.3708 17.7172 15.2707L15.2447 10.2138C15.1788 10.0619 15.1607 9.88435 15.194 9.71642C15.2273 9.54849 15.3096 9.40252 15.4244 9.30758C15.5436 9.22153 15.6844 9.19612 15.818 9.23654C15.9515 9.27697 16.0678 9.38017 16.1431 9.52508L18.6084 14.582C18.6785 14.7317 18.6996 14.91 18.6674 15.079C18.6352 15.2481 18.5522 15.3948 18.4359 15.4882C18.3591 15.5534 18.2697 15.591 18.1772 15.597Z" fill="#CCCCCC"/>
<path d="M4.79409 15.597C4.69423 15.5961 4.59676 15.5583 4.51378 15.4882C4.39625 15.3963 4.31176 15.2502 4.27821 15.081C4.24467 14.9118 4.26471 14.7328 4.33409 14.582L6.7994 9.52508C6.87467 9.38017 6.99097 9.27697 7.12456 9.23654C7.25814 9.19612 7.39893 9.22153 7.51815 9.30758C7.63568 9.39952 7.72018 9.54558 7.75372 9.71477C7.78727 9.88395 7.76722 10.063 7.69784 10.2138L5.25409 15.2707C5.20603 15.3702 5.13848 15.4525 5.05792 15.5097C4.97737 15.5668 4.88652 15.5969 4.79409 15.597Z" fill="#CCCCCC"/>
</svg>
