<svg width="21" height="22" viewBox="0 0 21 22" fill="none" xmlns="http://www.w3.org/2000/svg">
<path opacity="0.9" fill-rule="evenodd" clip-rule="evenodd" d="M15.5838 11.0001C15.5875 11.0001 15.5912 10.9993 15.5949 10.9993C15.6489 12.7335 16.4198 14.3753 17.7527 15.4927C18.2119 15.8786 18.4228 16.4699 18.2999 17.0621C18.1414 17.8274 17.4053 18.3335 16.6243 18.3335H1.70556C0.961157 18.3335 0.251669 17.8751 0.057303 17.1574C-0.109537 16.5404 0.0967469 15.9079 0.561514 15.511C1.95582 14.3322 2.75057 12.6198 2.75057 10.8057V8.25011C2.75057 4.70619 5.62344 1.8335 9.16718 1.8335C9.3743 1.8335 9.57874 1.84541 9.78049 1.86455C9.39092 2.69136 9.16718 3.61082 9.16718 4.5835C9.16718 8.1217 12.0464 11.0001 15.5838 11.0001ZM12.535 19.2501C12.2161 20.8166 10.8274 22.0001 9.16718 22.0001C7.50718 22.0001 6.11841 20.8166 5.79934 19.2501H12.535Z" fill="black"/>
<path d="M20.1672 4.58339C20.1672 7.11469 18.1152 9.16661 15.5838 9.16661C13.0525 9.16661 11.0005 7.11469 11.0005 4.58339C11.0005 2.05209 13.0525 0 15.5838 0C18.1152 0 20.1672 2.05209 20.1672 4.58339Z" fill="#E15656"/>
</svg>
