<svg width="20" height="20" viewBox="0 0 20 20" fill="none" xmlns="http://www.w3.org/2000/svg">
<path d="M10 1.66663C5.40835 1.66663 1.66669 5.40829 1.66669 9.99996C1.66669 14.5916 5.40835 18.3333 10 18.3333C14.5917 18.3333 18.3334 14.5916 18.3334 9.99996C18.3334 5.40829 14.5917 1.66663 10 1.66663ZM13.9834 8.08329L9.25835 12.8083C9.14169 12.925 8.98335 12.9916 8.81669 12.9916C8.65002 12.9916 8.49169 12.925 8.37502 12.8083L6.01669 10.45C5.77502 10.2083 5.77502 9.80829 6.01669 9.56663C6.25835 9.32496 6.65835 9.32496 6.90002 9.56663L8.81669 11.4833L13.1 7.19996C13.3417 6.95829 13.7417 6.95829 13.9834 7.19996C14.225 7.44163 14.225 7.83329 13.9834 8.08329Z" fill="#14664B"/>
</svg>
