<?xml version="1.0" encoding="UTF-8"?>
<svg id="Layer_1" data-name="Layer 1" xmlns="http://www.w3.org/2000/svg" viewBox="0 0 151.62 420.94">
  <defs>
    <style>
      .cls-1 {
        fill: #fff;
        stroke: #000;
      }
    </style>
  </defs>
  <path class="cls-1" d="m41.51,135.62c-1.14,8.36-3.13,15.82-3.87,23.62-.89,9.31-3.48,18.41-7.35,26.99-3.41,7.57-5.75,15.51-8.76,23.22-.86,2.19.03,4.1.79,6.05,2.01,5.14,1.47,10.17-.7,15.12-.32.72-.63,1.64-1.63,1.43-1.08-.23-1.22-1.22-1.15-2.15.1-1.29.34-2.57.39-3.86.02-.6.26-1.63-.8-1.57-.77.04-1.06.91-1.06,1.61,0,1.39.08,2.79.23,4.18.22,2.08.54,4.15.81,6.23.09.69.29,1.5-.59,1.79-.83.27-1.36-.45-1.63-1.03-.89-1.89-1.83-3.78-2.44-5.77-2.66-8.78-1.91-17.55.27-26.31,1.67-6.7,1.97-13.61,2.62-20.43.72-7.63.66-15.45,2.23-22.89,1.9-8.98,2.77-18.11,4.78-27.05,1.24-5.52,1.86-11.18,2.81-16.76.62-3.63,1.3-7.24,2.01-10.86.89-4.58,3.37-8.29,7.39-10.42,4.88-2.58,9.16-6.02,13.85-8.84,3.44-2.07,7.03-3.77,10.84-4.99,2.25-.72,3.3-2.08,3.69-4.48,1-6.09-.48-11.12-5.04-15.44-2.9-2.75-3.1-8.11-.99-11.45.88-1.39.92-3.04,1.19-4.6.52-3.06,1.18-6.04,2.59-8.86,2.2-4.39,5.91-6.38,10.56-6.7,4.91-.34,9.76-.2,13.87,3.26,3.27,2.76,4.6,6.43,5.28,10.42.46,2.69.3,5.37,2.5,7.7,1.92,2.02.1,8.12-2.6,10.98-3.8,4.03-6.08,8.54-4.66,14.36.55,2.26,1.56,3.87,3.73,4.62,4.11,1.42,7.72,3.73,11.21,6.21,3.42,2.43,6.95,4.65,10.64,6.65,4.63,2.51,7.64,6.42,8.57,11.65,2.53,14.11,5.59,28.12,7.95,42.27,1.84,11.01,3.43,22.02,4.88,33.08,1.19,9.05,3.57,17.95,4.74,27.01,1.12,8.67,1.76,17.49-1.88,25.9-.51,1.19-1.14,2.33-1.74,3.48-.31.6-.6,1.44-1.5,1.03-.82-.37-.6-1.14-.39-1.83.95-3.08,1.01-6.29,1.28-9.46.1-1.12.11-2.23-.81-3.04-.33-.29-.78-.11-1.06.21-.74.84-.57,1.85-.48,2.85.16,1.72,2.15,4.24-.39,4.85-1.57.38-1.95-2.8-2.51-4.48-1.42-4.26-.57-8.51.77-12.62.75-2.31.58-4.31-.17-6.64-3.7-11.41-8.92-22.21-13.09-33.42-2.58-6.92-4.22-14.11-4.01-21.62.18-6.66-2.06-12.86-4-19.14-3.55,18.34-4.17,36.76-2.17,55.31.75,7.01,1.5,14.03,2.24,21.04.79,7.52,1.85,15.02,2.27,22.58.68,12.36,1.21,24.76-.32,37.06-1.26,10.13-.93,20.05.93,30.04,1.82,9.79.87,19.68.81,29.55-.08,12.01-2.93,23.76-2.77,35.77.04,3.24.6,6.33,1.34,9.45.86,3.63,3.91,5.41,6.28,7.78.75.75,2.08,1.24,1.74,2.55-.37,1.46-1.89,1.41-3,1.47-4.28.21-8.55.45-12.84-.25-2.05-.33-2.87-1.25-3.11-3.28-.36-3.09-.58-6.15.06-9.2,1.29-6.15-.03-12.11-1.21-18.08-2.14-10.84-4.43-21.65-6.36-32.53-.89-5.01-.51-10.18-.22-15.25.44-7.55-1.26-14.6-3.65-21.67-2.92-8.63-3.86-17.7-5.43-26.63-1.83-10.39-3.65-20.78-5.61-31.15-.31-1.62-.17-4.3-2.28-4.37-2.52-.09-2.18,2.85-2.49,4.43-1.68,8.7-2.85,17.5-4.57,26.19-2.14,10.84-2.71,22.1-6.69,32.43-4.55,11.81-3.89,24.12-5.1,36.26-.91,9.13-2.59,18.13-4,27.17-.75,4.82-1.64,9.63-2.54,14.43-.71,3.77-.89,7.57-.08,11.3.64,2.95-.02,5.75-.32,8.61-.21,2-1.29,3.02-3.37,3.01-3.99-.03-7.97.01-11.96,0-.79,0-1.68,0-2.09-.86-.47-.99.21-1.69.8-2.38.13-.15.26-.31.41-.43,8.1-6.04,8.13-14.77,7.11-23.37-2.08-17.47-3.31-34.97-2.62-52.54.3-7.66,1.32-15.29,2.07-22.93.23-2.3.32-4.59.08-6.87-1.8-16.73-1.38-33.46.01-50.19.88-10.62,1.2-21.31,2.77-31.83,1.81-12.19,2.32-24.38,2.23-36.64-.06-8.57-1.42-16.96-3.52-26.01Z"/>
</svg>