<?xml version="1.0" encoding="UTF-8"?>
<svg id="Layer_1" data-name="Layer 1" xmlns="http://www.w3.org/2000/svg" viewBox="0 0 106.68 420.94">
  <defs>
    <style>
      .cls-1 {
        fill: #56a6e2;
      }
    </style>
  </defs>
  <path class="cls-1" d="m58.44,389.8c-5.29,0-10.58.03-15.86,0-3.35-.02-4.07-.66-4.01-4.07.07-3.97.5-7.91,1.4-11.82.83-3.61.74-7.41.13-11.02-1.65-9.82-3.64-19.58-5.51-29.37-1.3-6.84-1.04-13.7-.33-20.56.79-7.54,1.83-15.09,1.28-22.67-.42-5.75-1.74-11.42-2.01-17.2-.59-12.24-1.88-24.52,1.92-36.5,1.49-4.7-.26-8.54-2.4-12.48-3.18-5.87-5.3-12.07-4.57-18.87.53-4.98,2.68-9.56,3.94-14.37.99-3.76,2.4-7.4,3.56-11.11,1.87-5.99.47-11.88-.74-17.74-2.05-9.95-4.11-19.91-6.4-29.81-3.96-17.14.03-32.68,9.64-46.9,5.41-8,5.29-15.73.76-23.82-2.91-5.2-5.68-10.44-3.51-16.7,3.82-10.98,12.55-16.41,24.17-12.3,7.45,2.63,12.32,7.84,15.19,15.09.38.95.76,1.95.3,2.89-.95,1.93-.23,3.45.89,4.97.83,1.12,1.7,2.23,2.39,3.44.81,1.39,1.23,2.95-.7,3.76-1.82.76-1.93,2.08-2.16,3.8-.39,2.93-1.27,5.81-2.06,8.68-.36,1.29-1.45,1.86-2.76,1.9-1.2.04-2.4.1-3.59,0-3.11-.27-4.8,1.36-5.85,4.06-3.31,8.58-2.01,16.27,3.68,23.56,4.6,5.89,8.57,12.16,9.97,19.84.65,3.59-.11,6.75-1.07,9.95-.84,2.81-1.36,5.6-1.36,8.52,0,8.09.13,16.18-.13,24.26-.34,10.17-.45,20.34-.59,30.52-.07,5.17-1.41,10.26-2.06,15.4-.74,5.85-1.58,11.64-1.4,17.56.35,11.34-1.84,22.4-4.19,33.39-2.25,10.52-5.28,20.88-7.31,31.44-1.51,7.81-2.49,15.79-2.79,23.74-.49,13.05-2.06,26.04-2.24,39.09-.08,5.47-.55,11.24,2.42,16.37,4.02,6.93,10.62,9.57,18.03,10.87.58.1,1.2,0,1.79.07,1.7.2,3.8.33,3.63,2.61-.16,2.14-2.26,1.51-3.64,1.52-5.29.07-10.58.03-15.86.03h0Z"/>
</svg>